<svg width="500" height="424" viewBox="0 0 500 424" fill="none" xmlns="http://www.w3.org/2000/svg">
<path d="M482.935 221.689C439.067 131.992 313.581 0.628396 150.534 0.277518C-19.6172 -0.0813332 -36.0686 168.675 55.638 215.589C147.345 262.502 13.2536 320.971 109.107 379.711C206.132 439.169 413.469 433.587 464.506 387.335C515.542 341.083 501.89 260.437 482.935 221.689Z" fill="url(#paint0_linear)"/>
<path d="M69.378 338.26C69.378 338.26 90.9091 314.289 88.6284 304.839C86.3477 295.389 99.7129 283.914 99.9681 270.15C100.271 254.56 91.9378 258.73 89.059 252.064C84.7847 242.183 94.2983 233.435 79.9203 229.656C70.0957 227.08 63.1739 232.112 64.0909 219.967C65.008 207.821 60.6061 192.789 52.7592 187.335C41.5231 179.536 18.6603 178.922 26.3637 194.64C34.4498 211.155 27.3206 238.348 25.4386 245.796C5.50241 324.504 69.378 338.26 69.378 338.26Z" fill="url(#paint1_linear)"/>
<path d="M45.3828 203.523C47.8469 223.85 73.3652 256.314 61.7863 278.021C50.2073 299.727 67.7831 333.308 67.7831 333.308" stroke="url(#paint2_linear)" stroke-width="0.93"/>
<path d="M134.673 292.861C120.686 297.805 135.829 315.9 120.534 324.049C105.239 332.199 85.63 336.33 84.7289 332.375C84.6651 332.112 83.8437 329.488 82.9745 325.652C82.7751 324.767 82.5758 323.81 82.3764 322.805C82.3286 322.526 82.2728 322.239 82.2169 321.952C81.6457 318.892 81.2596 315.8 81.0606 312.694C81.0606 312.598 81.0606 312.502 81.0606 312.407C80.9889 311.171 80.9649 309.927 80.9889 308.691C81.0128 307.455 81.0766 306.298 81.2042 305.158C81.6587 300.756 82.9187 296.697 85.4944 293.786C86.1534 293.03 86.9034 292.357 87.7273 291.785C98.3573 284.392 102.6 287.981 102.52 277.056C102.376 258.332 107.711 255.525 113.987 257.383C120.263 259.241 125.152 259.775 126.085 252.829C127.018 245.884 121.3 215.062 135.59 215.118C160.311 215.198 147.799 246.713 145.303 251.801C139.322 264.057 151.762 265.979 154.721 274.927C157.679 283.874 148.652 287.917 134.673 292.861Z" fill="url(#paint3_linear)"/>
<path d="M81.9936 359.281C81.9936 359.281 78.2377 324.815 104.506 305.501C116.372 296.777 138.429 265.628 136.404 231.912" stroke="url(#paint4_linear)" stroke-width="2.67"/>
<path d="M45.1675 263.435C48.429 257.901 71.89 280.724 67.7831 285.764C63.6763 290.804 42.0574 268.691 45.1675 263.435Z" fill="url(#paint5_linear)"/>
<path d="M39.2504 294.536C39.7129 288.093 68.0303 297.359 66.5789 303.723C65.1276 310.086 38.8038 300.684 39.2504 294.536Z" fill="url(#paint6_linear)"/>
<path d="M92.7034 266.107C97.7193 270.03 72.9585 291.362 68.5407 286.633C64.1228 281.904 87.9266 262.359 92.7034 266.107Z" fill="url(#paint7_linear)"/>
<path d="M90.1117 292.981C94.3302 297.766 70.4227 309.727 66.8262 304.321C63.2297 298.914 86.1244 288.435 90.1117 292.981Z" fill="url(#paint8_linear)"/>
<path d="M41.1244 317.71C39.8884 311.793 71.1085 315.198 71.3716 321.29C71.6348 327.383 42.3046 323.34 41.1244 317.71Z" fill="url(#paint9_linear)"/>
<path d="M88.5885 310.82C91.7783 316.29 69.4498 329.959 66.8581 323.986C64.2663 318.013 85.5024 305.604 88.5885 310.82Z" fill="url(#paint10_linear)"/>
<path d="M76.252 236.809C82.5518 237.271 74.4019 269.018 68.1659 267.55C61.9298 266.083 70.2472 236.37 76.252 236.809Z" fill="url(#paint11_linear)"/>
<path d="M47.5359 261.912C50.7975 256.378 74.2504 279.201 70.1436 284.241C66.0367 289.281 44.4258 267.183 47.5359 261.912Z" fill="url(#paint12_linear)"/>
<path d="M41.1324 293.228C41.6029 286.777 69.9203 296.043 68.4689 302.415C67.0176 308.786 40.6699 299.36 41.1324 293.228Z" fill="url(#paint13_linear)"/>
<path d="M93.6603 264.687C98.6762 268.619 73.9155 289.943 69.4976 285.222C65.0798 280.501 88.8836 260.947 93.6603 264.687Z" fill="url(#paint14_linear)"/>
<path d="M81.7145 303.938C82.1531 299.608 83.3573 295.628 85.8294 292.774C88.8278 292.175 91.3397 292.295 92.4322 293.571C94.7767 296.171 88.4291 301.051 81.7145 303.938Z" fill="url(#paint15_linear)"/>
<path d="M91.2919 291.968C95.5024 296.753 71.5949 308.715 68.0064 303.308C64.4179 297.901 87.2727 287.423 91.2919 291.968Z" fill="url(#paint16_linear)"/>
<path d="M69.8565 260.062C69.8565 260.062 70.5742 276.553 68.3892 290.955C66.2042 305.357 71.7145 329.711 80.6858 337.494" stroke="url(#paint17_linear)" stroke-width="1.55"/>
<path d="M41.1244 316.577C39.8884 310.668 71.1085 314.065 71.3716 320.158C71.6348 326.25 42.3046 322.215 41.1244 316.577Z" fill="url(#paint18_linear)"/>
<path d="M82.8549 321.266C82.807 320.995 82.7512 320.708 82.7034 320.469C82.1529 317.463 81.7828 314.428 81.5949 311.378C81.5949 311.282 81.5949 311.187 81.5949 311.091C86.6906 308.276 92.1292 306.849 93.5566 309.297C95.3668 312.327 89.1308 317.965 82.8549 321.266Z" fill="url(#paint19_linear)"/>
<path d="M92.4083 306.912C95.638 312.383 73.2695 326.051 70.6778 320.078C68.0861 314.105 89.3142 301.713 92.4083 306.912Z" fill="url(#paint20_linear)"/>
<path d="M77.7752 236.394C84.075 236.848 75.9251 268.603 69.697 267.136C63.4689 265.668 71.7704 235.955 77.7752 236.394Z" fill="url(#paint21_linear)"/>
<path d="M83.1818 388.73H63.7959C55.0463 388.725 47.6488 382.251 46.4833 373.579L41.6986 337.869C41.545 336.718 41.8944 335.555 42.6575 334.679C43.4207 333.803 44.5239 333.298 45.6858 333.292H101.348C102.51 333.295 103.615 333.8 104.379 334.677C105.143 335.553 105.491 336.717 105.335 337.869L100.55 373.579C99.3885 382.275 91.9553 388.76 83.1818 388.73Z" fill="url(#paint22_linear)"/>
<rect x="64.2026" y="25.8676" width="251.427" height="172.648" rx="11.45" fill="url(#paint23_linear)"/>
<path d="M330.71 365.198C329.3 365.187 327.964 364.567 327.046 363.496C326.129 362.426 325.72 361.01 325.925 359.616L337.416 274.4L346.89 275.493L335.526 361.019C335.183 363.419 330.71 365.198 330.71 365.198Z" fill="url(#paint24_linear)"/>
<path d="M327.536 339.185L331.794 346.896L341.228 353.013L345.191 352.478L350.534 340.517L348.939 335.07L342.161 331.88L327.536 339.185Z" fill="url(#paint25_linear)"/>
<path d="M380.303 94.9266C381.037 92.6778 381.443 86.7608 381.826 84.9027C378.836 85.3094 376.244 89.7831 376.244 92.4785C377.002 92.3828 379.466 94.3764 380.303 94.9266Z" fill="url(#paint26_linear)"/>
<path d="M339.753 235.971C331.778 237.327 308.907 241.282 302.943 248.73C298.349 254.472 294.968 271.306 286.914 291.067C284.577 285.198 281.619 274.552 280.136 268.978C278.07 261.211 276.148 243.898 293.78 239.408C305.423 236.442 330.941 235.397 339.753 235.971Z" fill="#191337"/>
<path d="M325.837 235.421C325.837 235.421 306.22 237.407 297.305 248.284C290.327 256.801 284.051 282.726 284.051 282.726" stroke="#F3F6FD" stroke-linecap="round"/>
<path d="M415.678 358.938L403.884 272.104L411.858 268.914L425.199 357.271C425.75 360.413 423.333 360.987 420.949 361.418C418.565 361.848 416.268 362.144 415.678 358.938Z" fill="url(#paint27_linear)"/>
<path d="M384.888 369.345L374.801 270.357H384.641L394.665 368.643C394.888 371.697 392.56 371.577 390.263 371.92C387.711 372.303 385.167 372.797 384.888 369.345Z" fill="url(#paint28_linear)"/>
<path d="M421.403 258.826C419.322 274.209 396.683 276.37 370.367 277.223C369.569 277.63 340.494 277.455 326.954 272.885L327.424 168.722C327.424 159.951 331.188 145.413 344.019 145.198C365.55 144.839 405.55 141.553 421.196 146.394C424.777 159.241 427.384 173.443 421.419 210.565C417.998 231.817 422.408 251.474 421.403 258.826Z" fill="url(#paint29_linear)"/>
<path d="M415.47 152.853C420.255 167.207 419.649 175.501 413.278 198.683C402.663 237.319 420.088 257.152 383.27 276.641C405.598 275.365 419.633 271.92 421.404 258.826C422.408 251.442 417.998 231.817 421.404 210.565C425.797 183.22 433.995 160.876 423.094 147.67C420.08 144.018 413.876 148.005 415.47 152.853Z" fill="url(#paint30_linear)"/>
<path d="M283.014 351.203C276.794 348.898 268.461 344.026 268.461 344.026C268.461 344.026 258.094 355.19 256.938 356.282C260.782 357.805 258.844 368.882 262.018 370.636C265.191 372.391 273.589 364.807 277.632 365.724C277.998 362.167 281.922 353.132 283.014 351.203Z" fill="url(#paint31_linear)"/>
<path d="M344.258 333.204L327.512 341.33C325.439 339.735 324.322 335.9 322.863 333.643C320.231 329.568 317.416 330.19 313.046 323.786L302.113 305.174L325.16 270.15L340.032 310.485C341.308 313.762 340.829 322.75 340.829 322.75C341.978 325.405 346.962 332.16 344.258 333.204Z" fill="#191337"/>
<path d="M421.403 184.44C415.781 185.397 398.429 187.702 392.998 185.285C393.565 190.66 394.147 200.19 394.147 200.19C394.147 200.19 347.767 195.756 330.351 202.399C330.351 201.833 330.351 201.163 330.391 200.429C330.606 194.225 331.627 183.045 331.627 183.045C331.627 183.045 323.23 181.45 320.75 178.922C320.585 178.759 320.44 178.577 320.319 178.38C320.702 175.19 324.545 161.833 331.627 150.892C337.624 141.665 346.092 137.439 361.459 135.293L381.754 133.882C381.754 133.882 401.954 131.745 411.26 141.92C420.566 152.096 421.403 184.44 421.403 184.44Z" fill="url(#paint32_linear)"/>
<path d="M331.659 183.045C331.659 183.045 331.659 192.813 332.496 199.791C316.451 207.024 313.022 212.766 313.23 213.946L309.809 199.879L316.531 199.153L320.781 178.906C323.262 181.434 331.659 183.045 331.659 183.045Z" fill="url(#paint33_linear)"/>
<path d="M311.308 221.011H242.344L229.665 166.673C229.351 165.321 229.672 163.899 230.535 162.812C231.399 161.725 232.711 161.091 234.099 161.091H298.565L311.308 221.011Z" fill="url(#paint34_linear)"/>
<path d="M402.624 234.52C402.624 234.52 411.108 257.088 384.139 266.561C366.699 272.686 333.939 271.418 333.939 271.418L296.978 339.879C295.784 342.083 293.902 343.836 291.619 344.871L290.59 345.341C289.33 347.144 285.558 356.506 283.525 355.652L264.147 346.585C262.416 345.876 266.738 339.608 267.568 337.933C268.142 336.761 267.201 329.767 268.062 326.131C274.043 301.011 291.3 256.49 297.185 249.217C303.182 241.801 312.336 238.523 320.351 237.167C329.011 235.692 339.633 232.056 339.633 232.056L402.624 234.52Z" fill="#1F1844"/>
<path d="M331.172 233.435C331.172 233.435 328.285 233.077 323.78 232.781" stroke="#17FF44" stroke-width="1.95"/>
<path d="M370.175 144.568C365.435 145.481 360.672 143.101 358.557 138.762C358.557 138.762 358.158 138.029 357.632 134.775L357.4 133.332L357.185 132L356.914 130.405C356.152 130.501 355.385 130.552 354.617 130.557C348.596 130.557 338.756 128.164 334.458 119.049C331.451 112.67 333.062 106.219 332.56 102.303C332.057 98.3876 330.08 95.8357 328.756 91.5614C327.057 86.075 328.333 78.7385 330.869 76.705C342.249 67.4865 365.718 71.3142 365.718 71.3142C365.718 71.3142 373.692 73.6109 372.895 89.7273C373.596 89.1053 372.528 92.638 373.557 92.2791C375.71 91.5614 377.648 91.6412 379.083 92.4705C382.233 94.2648 383.006 99.5997 378.453 107.726C378.405 107.821 378.349 107.917 378.293 108.013C378.314 109.521 378.431 111.026 378.644 112.518C378.644 112.742 378.7 112.973 378.732 113.212C379.099 115.971 379.569 119.544 380.032 122.997C380.702 127.981 381.467 132.247 381.738 133.906C382.4 137.909 378.644 143.196 370.175 144.568Z" fill="url(#paint35_linear)"/>
<path d="M372.911 89.7034C373.708 73.5869 365.734 71.2903 365.734 71.2903C365.734 71.2903 342.265 67.4625 330.885 76.681C329.099 78.1164 329.187 81.2026 329.107 83.8581C333.525 79.2089 343.788 79.4721 351.754 78.6348C355.566 78.2361 354.41 82.5263 355.494 82.5742C363.708 79.9266 369.848 83.4195 369.912 95.5088L373.501 92.2711C372.616 92.3828 373.589 89.1053 372.911 89.7034Z" fill="url(#paint36_linear)"/>
<path d="M455.933 379.472H449.035C446.97 379.472 445.295 378.348 445.295 376.952V232.239H459.649V376.952C459.673 378.348 457.998 379.472 455.933 379.472Z" fill="url(#paint37_linear)"/>
<path d="M210.614 379.472H201.643C200.415 379.472 199.418 378.754 199.418 377.877V232.239H212.839V377.869C212.839 378.754 211.842 379.472 210.614 379.472Z" fill="url(#paint38_linear)"/>
<path d="M400.239 228.427L332.727 221.011V198.683L407.998 204.974L400.239 228.427Z" fill="url(#paint39_linear)"/>
<path d="M199.641 220.884H459.33C461.54 220.884 463.66 221.762 465.223 223.324C466.786 224.887 467.663 227.007 467.663 229.217V235.971H191.308V229.217C191.308 224.615 195.039 220.884 199.641 220.884V220.884Z" fill="url(#paint40_linear)"/>
<path d="M340.51 217.622L339.785 220.86H311.308L296.403 163.93C296.225 163.25 296.373 162.527 296.802 161.971C297.231 161.415 297.894 161.09 298.596 161.091C299.639 161.095 300.544 161.809 300.789 162.821L309.809 199.879L313.23 213.938V213.994C313.227 214.039 313.227 214.084 313.23 214.129V214.177H337.624C338.5 214.151 339.339 214.528 339.902 215.2C340.465 215.872 340.689 216.764 340.51 217.622Z" fill="url(#paint41_linear)"/>
<path d="M382.169 83.9538C382.273 81.1308 381.73 78.1483 380.797 74.0893C378.796 65.3174 372.919 61.6731 363.716 60.0223L354.944 59.0016C354.147 58.9139 339.442 57.8373 332.616 61.8644C330.048 63.3796 326.675 67.0558 326.715 69.504C326.818 75.756 326.715 79.0734 328.126 83.8581C331.132 71.059 337.943 86.0431 353.971 72.9968C356.946 70.6045 356.635 76.8884 357.711 76.9362C366.986 73.9458 373.581 78.7624 371.866 94.9346C374.258 93.5072 375.853 92.0319 377.281 91.8405C379.091 89.5439 382.105 85.437 382.169 83.9538Z" fill="#1F1844"/>
<path d="M378.788 113.188C374.972 122.713 367.168 130.083 357.44 133.348L357.225 132.016L356.954 130.421C356.192 130.517 355.425 130.568 354.657 130.573C359.362 126.522 372.448 115.07 378.509 107.742C378.461 107.837 378.405 107.933 378.349 108.029C378.37 109.537 378.487 111.041 378.7 112.534C378.692 112.718 378.716 112.949 378.788 113.188Z" fill="url(#paint42_linear)"/>
<path d="M373.485 94.201C373.772 93.874 374.665 93.0686 374.665 93.0686L373.979 90.0861L369.769 92.9011C368.958 93.4427 368.525 94.3982 368.652 95.3652L370.064 105.963C364.226 109.544 350.925 119.831 348.413 120.254C345.223 120.788 344.155 116.801 342.432 117.726C340.71 118.651 340.965 121.051 339.769 121.051C339.147 121.051 335.072 118.499 333.732 116.777C333.732 116.777 335.805 123.539 336.252 124.751C337.281 127.51 343.285 133.069 343.285 133.069C343.902 133.682 344.767 133.977 345.63 133.866L353.158 132.957L356.946 130.604C362.225 127.566 374.45 115.604 374.49 113.962C374.753 104.4 370.614 97.4466 373.485 94.201Z" fill="#1F1844"/>
<path d="M374.801 97.1675C374.801 97.1675 376.491 93.9777 378.286 95.9713C380.08 97.9649 378.286 102.048 378.286 102.048L374.801 97.1675Z" fill="url(#paint43_linear)"/>
<path d="M420.088 184.679C420.016 191.514 419.514 207.008 416.587 213.627C412.775 222.247 407.552 222.144 393.277 219.743C379.003 217.343 355.359 208.842 348.006 208.842C340.654 208.842 336.045 214.161 336.045 214.161H313.11C312.903 212.981 312.998 206.904 330.423 200.429C333.341 199.193 341.754 198.172 349.043 197.646C369.059 196.203 393.7 199.855 393.7 199.855C393.7 199.855 393.596 190.66 393.03 185.286C398.389 187.678 415.112 185.429 420.088 184.679Z" fill="url(#paint44_linear)"/>
<path d="M373.397 201.171C373.397 201.171 380.686 200.573 380.686 206.681C380.686 212.789 373.397 212.845 373.397 212.845" stroke="#D6D9E8" stroke-width="5.49"/>
<path d="M374.25 220.86H356.116L353.581 195.062C353.532 194.382 353.776 193.714 354.251 193.225C354.726 192.736 355.388 192.473 356.069 192.502H373.453C374.122 192.473 374.773 192.725 375.248 193.198C375.722 193.671 375.976 194.321 375.949 194.99L374.25 220.86Z" fill="url(#paint45_linear)"/>
<path d="M233.78 360.868C233.78 360.868 226.22 359.201 223.325 360.238C220.431 361.274 219.689 363.427 219.474 365.732C219.258 368.037 221.707 371.314 231.101 374.799C240.724 378.227 250.526 381.134 260.463 383.507C263.533 384.129 268.748 385.054 273.222 384.799C275.74 384.621 277.851 382.829 278.437 380.373C278.668 379.455 278.977 378.559 279.362 377.694C280.16 376.099 279.864 374.217 280.327 372.909C280.79 371.601 281.882 362.542 279.362 361.234C276.842 359.927 272.695 367.67 267.049 367.032C261.404 366.394 260.774 359.329 260.774 359.329C260.774 359.329 263.469 356.864 262.026 355.142C260.582 353.419 262.233 352.032 261.093 351.354C259.952 350.676 255.893 353.085 255.893 353.085C255.893 353.085 242.855 358.451 237.743 360.604C236.707 360.995 233.78 360.868 233.78 360.868Z" fill="#191337"/>
<path d="M328.357 342.518C328.357 342.518 338.03 345.429 339.92 348.579C341.81 351.729 348.262 342.12 345.415 336.689C342.568 331.258 346.451 332.144 349.123 334.352C351.794 336.561 353.955 334.959 355.821 336.553C357.687 338.148 361.523 341.657 358.724 348.252C355.925 354.847 349.657 357.702 347.177 362.654C344.697 367.606 345.582 377.694 341.762 381.466C337.943 385.238 330.686 390.062 322.456 386.035C314.226 382.008 321.579 370.987 323.493 368.252C325.407 365.517 325.781 356.131 325.885 352.303C325.989 348.475 325.359 343.659 328.357 342.518Z" fill="#191337"/>
<defs>
<linearGradient id="paint0_linear" x1="0.390762" y1="423.177" x2="500" y2="423.177" gradientUnits="userSpaceOnUse">
<stop stop-color="#F0F2F5"/>
<stop offset="0.99" stop-color="#F5F7F8"/>
</linearGradient>
<linearGradient id="paint1_linear" x1="106.433" y1="317.694" x2="41.1958" y2="193.146" gradientUnits="userSpaceOnUse">
<stop stop-color="#1F1844"/>
<stop offset="0.99" stop-color="#3D3C99"/>
</linearGradient>
<linearGradient id="paint2_linear" x1="79.4761" y1="283.526" x2="35.0151" y2="273.475" gradientUnits="userSpaceOnUse">
<stop stop-color="#3F3D9E"/>
<stop offset="0.99" stop-color="#423E9F"/>
</linearGradient>
<linearGradient id="paint3_linear" x1="83.4558" y1="340.616" x2="156.961" y2="334.006" gradientUnits="userSpaceOnUse">
<stop offset="0.01" stop-color="#BBC0D9"/>
<stop offset="1" stop-color="#D6DBF8"/>
</linearGradient>
<linearGradient id="paint4_linear" x1="80.9081" y1="361.25" x2="137.381" y2="361.285" gradientUnits="userSpaceOnUse">
<stop stop-color="#BAC6D8"/>
<stop offset="0.99" stop-color="#D6DBF8"/>
</linearGradient>
<linearGradient id="paint5_linear" x1="78.5028" y1="274.245" x2="55.7618" y2="252.878" gradientUnits="userSpaceOnUse">
<stop stop-color="#1F1844"/>
<stop offset="0.99" stop-color="#3D3C99"/>
</linearGradient>
<linearGradient id="paint6_linear" x1="76.261" y1="297.637" x2="63.5605" y2="279.413" gradientUnits="userSpaceOnUse">
<stop stop-color="#1F1844"/>
<stop offset="0.99" stop-color="#3D3C99"/>
</linearGradient>
<linearGradient id="paint7_linear" x1="79.8797" y1="295.637" x2="100.02" y2="273.934" gradientUnits="userSpaceOnUse">
<stop stop-color="#1F1844"/>
<stop offset="0.99" stop-color="#3D3C99"/>
</linearGradient>
<linearGradient id="paint8_linear" x1="76.8937" y1="310.594" x2="89.2823" y2="292.471" gradientUnits="userSpaceOnUse">
<stop stop-color="#1F1844"/>
<stop offset="0.99" stop-color="#3D3C99"/>
</linearGradient>
<linearGradient id="paint9_linear" x1="77.0827" y1="316.383" x2="62.3655" y2="299.238" gradientUnits="userSpaceOnUse">
<stop stop-color="#1F1844"/>
<stop offset="0.99" stop-color="#3D3C99"/>
</linearGradient>
<linearGradient id="paint10_linear" x1="76.9221" y1="330.822" x2="91.7116" y2="313.097" gradientUnits="userSpaceOnUse">
<stop stop-color="#1F1844"/>
<stop offset="0.99" stop-color="#3D3C99"/>
</linearGradient>
<linearGradient id="paint11_linear" x1="69.8811" y1="228.891" x2="51.4746" y2="241.425" gradientUnits="userSpaceOnUse">
<stop offset="0.01" stop-color="#3D3C99"/>
<stop offset="1" stop-color="#1F1844"/>
</linearGradient>
<linearGradient id="paint12_linear" x1="56.8387" y1="281.911" x2="63.5919" y2="275.373" gradientUnits="userSpaceOnUse">
<stop stop-color="#E0E4EB"/>
<stop offset="0.99" stop-color="#F3F6FD"/>
</linearGradient>
<linearGradient id="paint13_linear" x1="61.4692" y1="305.883" x2="62.1855" y2="296.677" gradientUnits="userSpaceOnUse">
<stop stop-color="#E0E4EB"/>
<stop offset="0.99" stop-color="#F3F6FD"/>
</linearGradient>
<linearGradient id="paint14_linear" x1="62.9745" y1="271.144" x2="67.717" y2="279.184" gradientUnits="userSpaceOnUse">
<stop stop-color="#E0E4EB"/>
<stop offset="0.99" stop-color="#F3F6FD"/>
</linearGradient>
<linearGradient id="paint15_linear" x1="85.8911" y1="308.115" x2="95.9635" y2="298.314" gradientUnits="userSpaceOnUse">
<stop offset="0.01" stop-color="#BBC0D9"/>
<stop offset="1" stop-color="#D6DBF8"/>
</linearGradient>
<linearGradient id="paint16_linear" x1="67.2957" y1="306.933" x2="68.9857" y2="315.91" gradientUnits="userSpaceOnUse">
<stop stop-color="#E0E4EB"/>
<stop offset="0.99" stop-color="#F3F6FD"/>
</linearGradient>
<linearGradient id="paint17_linear" x1="66.2843" y1="341.988" x2="79.788" y2="341.901" gradientUnits="userSpaceOnUse">
<stop stop-color="#E0E4EB"/>
<stop offset="0.99" stop-color="#F3F6FD"/>
</linearGradient>
<linearGradient id="paint18_linear" x1="73.3727" y1="331.376" x2="73.4131" y2="322.208" gradientUnits="userSpaceOnUse">
<stop stop-color="#E0E4EB"/>
<stop offset="0.99" stop-color="#F3F6FD"/>
</linearGradient>
<linearGradient id="paint19_linear" x1="86.2553" y1="324.155" x2="96.7945" y2="314.074" gradientUnits="userSpaceOnUse">
<stop offset="0.01" stop-color="#BBC0D9"/>
<stop offset="1" stop-color="#D6DBF8"/>
</linearGradient>
<linearGradient id="paint20_linear" x1="79.1826" y1="327.374" x2="81.1482" y2="337.739" gradientUnits="userSpaceOnUse">
<stop stop-color="#E0E4EB"/>
<stop offset="0.99" stop-color="#F3F6FD"/>
</linearGradient>
<linearGradient id="paint21_linear" x1="71.417" y1="228.469" x2="53.0134" y2="240.981" gradientUnits="userSpaceOnUse">
<stop stop-color="#E6EAF1"/>
<stop offset="0.99" stop-color="#F3F6FD"/>
</linearGradient>
<linearGradient id="paint22_linear" x1="55.4073" y1="388.511" x2="108.539" y2="372.388" gradientUnits="userSpaceOnUse">
<stop offset="0.11" stop-color="#8988D5"/>
<stop offset="0.56" stop-color="#9D9CE8"/>
<stop offset="1" stop-color="#A7A5EE"/>
</linearGradient>
<linearGradient id="paint23_linear" x1="64.2026" y1="198.515" x2="315.63" y2="198.515" gradientUnits="userSpaceOnUse">
<stop offset="0.01" stop-color="#BBBFD9"/>
<stop offset="1" stop-color="#D6DBF8"/>
</linearGradient>
<linearGradient id="paint24_linear" x1="325.837" y1="365.3" x2="346.898" y2="365.3" gradientUnits="userSpaceOnUse">
<stop offset="0.01" stop-color="#BBBFD9"/>
<stop offset="1" stop-color="#D6DBF8"/>
</linearGradient>
<linearGradient id="paint25_linear" x1="355.767" y1="347.004" x2="347.178" y2="329.126" gradientUnits="userSpaceOnUse">
<stop stop-color="#753200"/>
<stop offset="1" stop-color="#A04400"/>
</linearGradient>
<linearGradient id="paint26_linear" x1="376.22" y1="94.9521" x2="381.826" y2="94.9521" gradientUnits="userSpaceOnUse">
<stop stop-color="#753200"/>
<stop offset="1" stop-color="#A04400"/>
</linearGradient>
<linearGradient id="paint27_linear" x1="403.884" y1="361.737" x2="425.303" y2="361.737" gradientUnits="userSpaceOnUse">
<stop offset="0.01" stop-color="#BBBFD9"/>
<stop offset="1" stop-color="#D6DBF8"/>
</linearGradient>
<linearGradient id="paint28_linear" x1="374.809" y1="372.193" x2="394.689" y2="372.193" gradientUnits="userSpaceOnUse">
<stop offset="0.01" stop-color="#BBBFD9"/>
<stop offset="1" stop-color="#D6DBF8"/>
</linearGradient>
<linearGradient id="paint29_linear" x1="424.216" y1="275.955" x2="424.216" y2="144.352" gradientUnits="userSpaceOnUse">
<stop stop-color="#201F4F"/>
<stop offset="0.39" stop-color="#3D3C99"/>
<stop offset="1" stop-color="#403DA0"/>
</linearGradient>
<linearGradient id="paint30_linear" x1="417.065" y1="230.226" x2="429.04" y2="230.371" gradientUnits="userSpaceOnUse">
<stop offset="0.11" stop-color="#343381"/>
<stop offset="0.56" stop-color="#3D3C99"/>
<stop offset="1" stop-color="#403DA0"/>
</linearGradient>
<linearGradient id="paint31_linear" x1="273.711" y1="376.353" x2="286.718" y2="353.519" gradientUnits="userSpaceOnUse">
<stop stop-color="#753200"/>
<stop offset="1" stop-color="#A04400"/>
</linearGradient>
<linearGradient id="paint32_linear" x1="385.207" y1="207.174" x2="500.327" y2="207.174" gradientUnits="userSpaceOnUse">
<stop stop-color="#A7A5EE"/>
<stop offset="0.44" stop-color="#9D9CE8"/>
<stop offset="0.89" stop-color="#8988D5"/>
</linearGradient>
<linearGradient id="paint33_linear" x1="332.706" y1="203.169" x2="319.596" y2="186.928" gradientUnits="userSpaceOnUse">
<stop stop-color="#753200"/>
<stop offset="0.05" stop-color="#793300"/>
<stop offset="0.38" stop-color="#8E3D00"/>
<stop offset="0.7" stop-color="#9C4200"/>
<stop offset="1" stop-color="#A04400"/>
</linearGradient>
<linearGradient id="paint34_linear" x1="209.641" y1="230.366" x2="316.93" y2="230.366" gradientUnits="userSpaceOnUse">
<stop offset="0.01" stop-color="#BBBFD9"/>
<stop offset="0.29" stop-color="#CACDE2"/>
<stop offset="0.84" stop-color="#F2F3F8"/>
<stop offset="1" stop-color="white"/>
</linearGradient>
<linearGradient id="paint35_linear" x1="323.395" y1="160.544" x2="368.38" y2="147.025" gradientUnits="userSpaceOnUse">
<stop stop-color="#753200"/>
<stop offset="1" stop-color="#A04400"/>
</linearGradient>
<linearGradient id="paint36_linear" x1="358.836" y1="96.6162" x2="369.903" y2="74.0712" gradientUnits="userSpaceOnUse">
<stop stop-color="#A04400" stop-opacity="0.01"/>
<stop offset="0.18" stop-color="#9A4100" stop-opacity="0.14"/>
<stop offset="0.52" stop-color="#8A3B00" stop-opacity="0.52"/>
<stop offset="0.9" stop-color="#753200"/>
</linearGradient>
<linearGradient id="paint37_linear" x1="445.295" y1="379.589" x2="459.673" y2="379.589" gradientUnits="userSpaceOnUse">
<stop offset="0.11" stop-color="#8988D5"/>
<stop offset="0.56" stop-color="#9D9CE8"/>
<stop offset="1" stop-color="#A7A5EE"/>
</linearGradient>
<linearGradient id="paint38_linear" x1="199.418" y1="379.468" x2="212.839" y2="379.468" gradientUnits="userSpaceOnUse">
<stop offset="0.11" stop-color="#8988D5"/>
<stop offset="0.56" stop-color="#9D9CE8"/>
<stop offset="1" stop-color="#A7A5EE"/>
</linearGradient>
<linearGradient id="paint39_linear" x1="332.727" y1="228.429" x2="408.006" y2="228.429" gradientUnits="userSpaceOnUse">
<stop stop-color="#A7A5EE"/>
<stop offset="0.44" stop-color="#9D9CE8"/>
<stop offset="0.89" stop-color="#8988D5"/>
</linearGradient>
<linearGradient id="paint40_linear" x1="453.986" y1="234.775" x2="453.986" y2="221.179" gradientUnits="userSpaceOnUse">
<stop offset="0.11" stop-color="#343381"/>
<stop offset="0.56" stop-color="#3D3C99"/>
<stop offset="1" stop-color="#403DA0"/>
</linearGradient>
<linearGradient id="paint41_linear" x1="314.815" y1="229.74" x2="347.882" y2="206.053" gradientUnits="userSpaceOnUse">
<stop stop-color="white"/>
<stop offset="0.16" stop-color="#F2F3F8"/>
<stop offset="0.71" stop-color="#CACDE2"/>
<stop offset="0.99" stop-color="#BBBFD9"/>
</linearGradient>
<linearGradient id="paint42_linear" x1="368.878" y1="100.576" x2="346.176" y2="120.365" gradientUnits="userSpaceOnUse">
<stop stop-color="#A04400"/>
<stop offset="1" stop-color="#753200"/>
</linearGradient>
<linearGradient id="paint43_linear" x1="378.064" y1="94.932" x2="374.725" y2="96.2562" gradientUnits="userSpaceOnUse">
<stop stop-color="#753200"/>
<stop offset="1" stop-color="#A04400"/>
</linearGradient>
<linearGradient id="paint44_linear" x1="313.418" y1="162.249" x2="313.137" y2="200.183" gradientUnits="userSpaceOnUse">
<stop stop-color="#753200"/>
<stop offset="1" stop-color="#A04400"/>
</linearGradient>
<linearGradient id="paint45_linear" x1="353.565" y1="220.871" x2="375.957" y2="220.871" gradientUnits="userSpaceOnUse">
<stop stop-color="white"/>
<stop offset="0.16" stop-color="#F2F3F8"/>
<stop offset="0.71" stop-color="#CACDE2"/>
<stop offset="0.99" stop-color="#BBBFD9"/>
</linearGradient>
</defs>
</svg>
