<svg width="500" height="500" viewBox="0 0 500 500" fill="none" xmlns="http://www.w3.org/2000/svg">
<path d="M482.935 259.689C439.067 169.992 313.581 38.6284 150.534 38.2775C-19.6172 37.9187 -36.0686 206.675 55.638 253.589C147.345 300.502 13.2536 358.971 109.107 417.711C206.132 477.169 413.469 471.587 464.506 425.335C515.542 379.083 501.89 298.437 482.935 259.689Z" fill="url(#paint0_linear)"/>
<path d="M69.378 376.26C69.378 376.26 90.9091 352.289 88.6284 342.839C86.3477 333.389 99.7129 321.914 99.9681 308.15C100.271 292.56 91.9378 296.73 89.059 290.064C84.7847 280.183 94.2983 271.435 79.9203 267.656C70.0957 265.08 63.1739 270.112 64.0909 257.967C65.008 245.821 60.6061 230.789 52.7592 225.335C41.5231 217.536 18.6603 216.922 26.3637 232.64C34.4498 249.155 27.3206 276.348 25.4386 283.796C5.50241 362.504 69.378 376.26 69.378 376.26Z" fill="url(#paint1_linear)"/>
<path d="M45.3828 241.523C47.8469 261.85 73.3652 294.314 61.7863 316.021C50.2073 337.727 67.7831 371.308 67.7831 371.308" stroke="url(#paint2_linear)" stroke-width="0.93"/>
<path d="M134.673 330.861C120.686 335.805 135.829 353.9 120.534 362.049C105.239 370.199 85.63 374.33 84.7289 370.375C84.6651 370.112 83.8437 367.488 82.9745 363.652C82.7751 362.767 82.5758 361.81 82.3764 360.805C82.3286 360.526 82.2728 360.239 82.2169 359.952C81.6457 356.892 81.2596 353.8 81.0606 350.694C81.0606 350.598 81.0606 350.502 81.0606 350.407C80.9889 349.171 80.9649 347.927 80.9889 346.691C81.0128 345.455 81.0766 344.298 81.2042 343.158C81.6587 338.756 82.9187 334.697 85.4944 331.786C86.1534 331.03 86.9034 330.357 87.7273 329.785C98.3573 322.392 102.6 325.981 102.52 315.056C102.376 296.332 107.711 293.525 113.987 295.383C120.263 297.241 125.152 297.775 126.085 290.829C127.018 283.884 121.3 253.062 135.59 253.118C160.311 253.198 147.799 284.713 145.303 289.801C139.322 302.057 151.762 303.979 154.721 312.927C157.679 321.874 148.652 325.917 134.673 330.861Z" fill="url(#paint3_linear)"/>
<path d="M81.9936 397.281C81.9936 397.281 78.2377 362.815 104.506 343.501C116.372 334.777 138.429 303.628 136.404 269.912" stroke="url(#paint4_linear)" stroke-width="2.67"/>
<path d="M45.1675 301.435C48.429 295.901 71.89 318.724 67.7831 323.764C63.6763 328.804 42.0574 306.691 45.1675 301.435Z" fill="url(#paint5_linear)"/>
<path d="M39.2504 332.536C39.7129 326.093 68.0303 335.359 66.5789 341.723C65.1276 348.086 38.8038 338.684 39.2504 332.536Z" fill="url(#paint6_linear)"/>
<path d="M92.7034 304.107C97.7193 308.03 72.9585 329.362 68.5407 324.633C64.1228 319.904 87.9266 300.359 92.7034 304.107Z" fill="url(#paint7_linear)"/>
<path d="M90.1117 330.981C94.3302 335.766 70.4227 347.727 66.8262 342.321C63.2297 336.914 86.1244 326.435 90.1117 330.981Z" fill="url(#paint8_linear)"/>
<path d="M41.1244 355.71C39.8884 349.793 71.1085 353.198 71.3716 359.29C71.6348 365.383 42.3046 361.34 41.1244 355.71Z" fill="url(#paint9_linear)"/>
<path d="M88.5885 348.82C91.7783 354.29 69.4498 367.959 66.8581 361.986C64.2663 356.013 85.5024 343.604 88.5885 348.82Z" fill="url(#paint10_linear)"/>
<path d="M76.252 274.809C82.5518 275.271 74.4019 307.018 68.1659 305.55C61.9298 304.083 70.2472 274.37 76.252 274.809Z" fill="url(#paint11_linear)"/>
<path d="M47.5359 299.912C50.7975 294.378 74.2504 317.201 70.1436 322.241C66.0367 327.281 44.4258 305.183 47.5359 299.912Z" fill="url(#paint12_linear)"/>
<path d="M41.1324 331.228C41.6029 324.777 69.9203 334.043 68.4689 340.415C67.0176 346.786 40.6699 337.36 41.1324 331.228Z" fill="url(#paint13_linear)"/>
<path d="M93.6603 302.687C98.6762 306.619 73.9155 327.943 69.4976 323.222C65.0798 318.501 88.8836 298.947 93.6603 302.687Z" fill="url(#paint14_linear)"/>
<path d="M81.7145 341.938C82.1531 337.608 83.3573 333.628 85.8294 330.774C88.8278 330.175 91.3397 330.295 92.4322 331.571C94.7767 334.171 88.4291 339.051 81.7145 341.938Z" fill="url(#paint15_linear)"/>
<path d="M91.2919 329.968C95.5024 334.753 71.5949 346.715 68.0064 341.308C64.4179 335.901 87.2727 325.423 91.2919 329.968Z" fill="url(#paint16_linear)"/>
<path d="M69.8565 298.062C69.8565 298.062 70.5742 314.553 68.3892 328.955C66.2042 343.357 71.7145 367.711 80.6858 375.494" stroke="url(#paint17_linear)" stroke-width="1.55"/>
<path d="M41.1244 354.577C39.8884 348.668 71.1085 352.065 71.3716 358.158C71.6348 364.25 42.3046 360.215 41.1244 354.577Z" fill="url(#paint18_linear)"/>
<path d="M82.8549 359.266C82.807 358.995 82.7512 358.708 82.7034 358.469C82.1529 355.463 81.7828 352.428 81.5949 349.378C81.5949 349.282 81.5949 349.187 81.5949 349.091C86.6906 346.276 92.1292 344.849 93.5566 347.297C95.3668 350.327 89.1308 355.965 82.8549 359.266Z" fill="url(#paint19_linear)"/>
<path d="M92.4083 344.912C95.638 350.383 73.2695 364.051 70.6778 358.078C68.0861 352.105 89.3142 339.713 92.4083 344.912Z" fill="url(#paint20_linear)"/>
<path d="M77.7752 274.394C84.075 274.848 75.9251 306.603 69.697 305.136C63.4689 303.668 71.7704 273.955 77.7752 274.394Z" fill="url(#paint21_linear)"/>
<path d="M83.1818 426.73H63.7959C55.0463 426.725 47.6488 420.251 46.4833 411.579L41.6986 375.869C41.545 374.718 41.8944 373.555 42.6575 372.679C43.4207 371.803 44.5239 371.298 45.6858 371.292H101.348C102.51 371.295 103.615 371.8 104.379 372.677C105.143 373.553 105.491 374.717 105.335 375.869L100.55 411.579C99.3885 420.275 91.9553 426.76 83.1818 426.73Z" fill="url(#paint22_linear)"/>
<rect x="64.2026" y="63.8676" width="251.427" height="172.648" rx="11.45" fill="url(#paint23_linear)"/>
<path d="M330.71 403.198C329.3 403.187 327.964 402.567 327.046 401.496C326.129 400.426 325.72 399.01 325.925 397.616L337.416 312.4L346.89 313.493L335.526 399.019C335.183 401.419 330.71 403.198 330.71 403.198Z" fill="url(#paint24_linear)"/>
<path d="M327.536 377.185L331.794 384.896L341.228 391.013L345.191 390.478L350.534 378.517L348.939 373.07L342.161 369.88L327.536 377.185Z" fill="url(#paint25_linear)"/>
<path d="M380.303 132.927C381.037 130.678 381.443 124.761 381.826 122.903C378.836 123.309 376.244 127.783 376.244 130.478C377.002 130.383 379.466 132.376 380.303 132.927Z" fill="url(#paint26_linear)"/>
<path d="M339.753 273.971C331.778 275.327 308.907 279.282 302.943 286.73C298.349 292.472 294.968 309.306 286.914 329.067C284.577 323.198 281.619 312.552 280.136 306.978C278.07 299.211 276.148 281.898 293.78 277.408C305.423 274.442 330.941 273.397 339.753 273.971Z" fill="#191337"/>
<path d="M325.837 273.421C325.837 273.421 306.22 275.407 297.305 286.284C290.327 294.801 284.051 320.726 284.051 320.726" stroke="#F3F6FD" stroke-linecap="round"/>
<path d="M415.678 396.938L403.884 310.104L411.858 306.914L425.199 395.271C425.75 398.413 423.333 398.987 420.949 399.418C418.565 399.848 416.268 400.144 415.678 396.938Z" fill="url(#paint27_linear)"/>
<path d="M384.888 407.345L374.801 308.357H384.641L394.665 406.643C394.888 409.697 392.56 409.577 390.263 409.92C387.711 410.303 385.167 410.797 384.888 407.345Z" fill="url(#paint28_linear)"/>
<path d="M421.403 296.826C419.322 312.209 396.683 314.37 370.367 315.223C369.569 315.63 340.494 315.455 326.954 310.885L327.424 206.722C327.424 197.951 331.188 183.413 344.019 183.198C365.55 182.839 405.55 179.553 421.196 184.394C424.777 197.241 427.384 211.443 421.419 248.565C417.998 269.817 422.408 289.474 421.403 296.826Z" fill="url(#paint29_linear)"/>
<path d="M415.47 190.853C420.255 205.207 419.649 213.501 413.278 236.683C402.663 275.319 420.088 295.152 383.27 314.641C405.598 313.365 419.633 309.92 421.404 296.826C422.408 289.442 417.998 269.817 421.404 248.565C425.797 221.22 433.995 198.876 423.094 185.67C420.08 182.018 413.876 186.005 415.47 190.853Z" fill="url(#paint30_linear)"/>
<path d="M283.014 389.203C276.794 386.898 268.461 382.026 268.461 382.026C268.461 382.026 258.094 393.19 256.938 394.282C260.782 395.805 258.844 406.882 262.018 408.636C265.191 410.391 273.589 402.807 277.632 403.724C277.998 400.167 281.922 391.132 283.014 389.203Z" fill="url(#paint31_linear)"/>
<path d="M344.258 371.204L327.512 379.33C325.439 377.735 324.322 373.9 322.863 371.643C320.231 367.568 317.416 368.19 313.046 361.786L302.113 343.174L325.16 308.15L340.032 348.485C341.308 351.762 340.829 360.75 340.829 360.75C341.978 363.405 346.962 370.16 344.258 371.204Z" fill="#191337"/>
<path d="M421.403 222.44C415.781 223.397 398.429 225.702 392.998 223.285C393.565 228.66 394.147 238.19 394.147 238.19C394.147 238.19 347.767 233.756 330.351 240.399C330.351 239.833 330.351 239.163 330.391 238.429C330.606 232.225 331.627 221.045 331.627 221.045C331.627 221.045 323.23 219.45 320.75 216.922C320.585 216.759 320.44 216.577 320.319 216.38C320.702 213.19 324.545 199.833 331.627 188.892C337.624 179.665 346.092 175.439 361.459 173.293L381.754 171.882C381.754 171.882 401.954 169.745 411.26 179.92C420.566 190.096 421.403 222.44 421.403 222.44Z" fill="url(#paint32_linear)"/>
<path d="M331.659 221.045C331.659 221.045 331.659 230.813 332.496 237.791C316.451 245.024 313.022 250.766 313.23 251.946L309.809 237.879L316.531 237.153L320.781 216.906C323.262 219.434 331.659 221.045 331.659 221.045Z" fill="url(#paint33_linear)"/>
<path d="M311.308 259.011H242.344L229.665 204.673C229.351 203.321 229.672 201.899 230.535 200.812C231.399 199.725 232.711 199.091 234.099 199.091H298.565L311.308 259.011Z" fill="url(#paint34_linear)"/>
<path d="M402.624 272.52C402.624 272.52 411.108 295.088 384.139 304.561C366.699 310.686 333.939 309.418 333.939 309.418L296.978 377.879C295.784 380.083 293.902 381.836 291.619 382.871L290.59 383.341C289.33 385.144 285.558 394.506 283.525 393.652L264.147 384.585C262.416 383.876 266.738 377.608 267.568 375.933C268.142 374.761 267.201 367.767 268.062 364.131C274.043 339.011 291.3 294.49 297.185 287.217C303.182 279.801 312.336 276.523 320.351 275.167C329.011 273.692 339.633 270.056 339.633 270.056L402.624 272.52Z" fill="#1F1844"/>
<path d="M331.172 271.435C331.172 271.435 328.285 271.077 323.78 270.781" stroke="#17FF44" stroke-width="1.95"/>
<path d="M370.175 182.568C365.435 183.481 360.672 181.101 358.557 176.762C358.557 176.762 358.158 176.029 357.632 172.775L357.4 171.332L357.185 170L356.914 168.405C356.152 168.501 355.385 168.552 354.617 168.557C348.596 168.557 338.756 166.164 334.458 157.049C331.451 150.67 333.062 144.219 332.56 140.303C332.057 136.388 330.08 133.836 328.756 129.561C327.057 124.075 328.333 116.738 330.869 114.705C342.249 105.486 365.718 109.314 365.718 109.314C365.718 109.314 373.692 111.611 372.895 127.727C373.596 127.105 372.528 130.638 373.557 130.279C375.71 129.561 377.648 129.641 379.083 130.471C382.233 132.265 383.006 137.6 378.453 145.726C378.405 145.821 378.349 145.917 378.293 146.013C378.314 147.521 378.431 149.026 378.644 150.518C378.644 150.742 378.7 150.973 378.732 151.212C379.099 153.971 379.569 157.544 380.032 160.997C380.702 165.981 381.467 170.247 381.738 171.906C382.4 175.909 378.644 181.196 370.175 182.568Z" fill="url(#paint35_linear)"/>
<path d="M372.911 127.703C373.708 111.587 365.734 109.29 365.734 109.29C365.734 109.29 342.265 105.463 330.885 114.681C329.099 116.116 329.187 119.203 329.107 121.858C333.525 117.209 343.788 117.472 351.754 116.635C355.566 116.236 354.41 120.526 355.494 120.574C363.708 117.927 369.848 121.419 369.912 133.509L373.501 130.271C372.616 130.383 373.589 127.105 372.911 127.703Z" fill="url(#paint36_linear)"/>
<path d="M455.933 417.472H449.035C446.97 417.472 445.295 416.348 445.295 414.952V270.239H459.649V414.952C459.673 416.348 457.998 417.472 455.933 417.472Z" fill="url(#paint37_linear)"/>
<path d="M210.614 417.472H201.643C200.415 417.472 199.418 416.754 199.418 415.877V270.239H212.839V415.869C212.839 416.754 211.842 417.472 210.614 417.472Z" fill="url(#paint38_linear)"/>
<path d="M400.239 266.427L332.727 259.011V236.683L407.998 242.974L400.239 266.427Z" fill="url(#paint39_linear)"/>
<path d="M199.641 258.884H459.33C461.54 258.884 463.66 259.762 465.223 261.324C466.786 262.887 467.663 265.007 467.663 267.217V273.971H191.308V267.217C191.308 262.615 195.039 258.884 199.641 258.884V258.884Z" fill="url(#paint40_linear)"/>
<path d="M340.51 255.622L339.785 258.86H311.308L296.403 201.93C296.225 201.25 296.373 200.527 296.802 199.971C297.231 199.415 297.894 199.09 298.596 199.091C299.639 199.095 300.544 199.809 300.789 200.821L309.809 237.879L313.23 251.938V251.994C313.227 252.039 313.227 252.084 313.23 252.129V252.177H337.624C338.5 252.151 339.339 252.528 339.902 253.2C340.465 253.872 340.689 254.764 340.51 255.622Z" fill="url(#paint41_linear)"/>
<path d="M382.169 121.954C382.273 119.131 381.73 116.148 380.797 112.089C378.796 103.317 372.919 99.6731 363.716 98.0223L354.944 97.0016C354.147 96.9139 339.442 95.8373 332.616 99.8644C330.048 101.38 326.675 105.056 326.715 107.504C326.818 113.756 326.715 117.073 328.126 121.858C331.132 109.059 337.943 124.043 353.971 110.997C356.946 108.604 356.635 114.888 357.711 114.936C366.986 111.946 373.581 116.762 371.866 132.935C374.258 131.507 375.853 130.032 377.281 129.841C379.091 127.544 382.105 123.437 382.169 121.954Z" fill="#1F1844"/>
<path d="M378.788 151.188C374.972 160.713 367.168 168.083 357.44 171.348L357.225 170.016L356.954 168.421C356.192 168.517 355.425 168.568 354.657 168.573C359.362 164.522 372.448 153.07 378.509 145.742C378.461 145.837 378.405 145.933 378.349 146.029C378.37 147.537 378.487 149.041 378.7 150.534C378.692 150.718 378.716 150.949 378.788 151.188Z" fill="url(#paint42_linear)"/>
<path d="M373.485 132.201C373.772 131.874 374.665 131.069 374.665 131.069L373.979 128.086L369.769 130.901C368.958 131.443 368.525 132.398 368.652 133.365L370.064 143.963C364.226 147.544 350.925 157.831 348.413 158.254C345.223 158.788 344.155 154.801 342.432 155.726C340.71 156.651 340.965 159.051 339.769 159.051C339.147 159.051 335.072 156.499 333.732 154.777C333.732 154.777 335.805 161.539 336.252 162.751C337.281 165.51 343.285 171.069 343.285 171.069C343.902 171.682 344.767 171.977 345.63 171.866L353.158 170.957L356.946 168.604C362.225 165.566 374.45 153.604 374.49 151.962C374.753 142.4 370.614 135.447 373.485 132.201Z" fill="#1F1844"/>
<path d="M374.801 135.167C374.801 135.167 376.491 131.978 378.286 133.971C380.08 135.965 378.286 140.048 378.286 140.048L374.801 135.167Z" fill="url(#paint43_linear)"/>
<path d="M420.088 222.679C420.016 229.514 419.514 245.008 416.587 251.627C412.775 260.247 407.552 260.144 393.277 257.743C379.003 255.343 355.359 246.842 348.006 246.842C340.654 246.842 336.045 252.161 336.045 252.161H313.11C312.903 250.981 312.998 244.904 330.423 238.429C333.341 237.193 341.754 236.172 349.043 235.646C369.059 234.203 393.7 237.855 393.7 237.855C393.7 237.855 393.596 228.66 393.03 223.286C398.389 225.678 415.112 223.429 420.088 222.679Z" fill="url(#paint44_linear)"/>
<path d="M373.397 239.171C373.397 239.171 380.686 238.573 380.686 244.681C380.686 250.789 373.397 250.845 373.397 250.845" stroke="#D6D9E8" stroke-width="5.49"/>
<path d="M374.25 258.86H356.116L353.581 233.062C353.532 232.382 353.776 231.714 354.251 231.225C354.726 230.736 355.388 230.473 356.069 230.502H373.453C374.122 230.473 374.773 230.725 375.248 231.198C375.722 231.671 375.976 232.321 375.949 232.99L374.25 258.86Z" fill="url(#paint45_linear)"/>
<path d="M233.78 398.868C233.78 398.868 226.22 397.201 223.325 398.238C220.431 399.274 219.689 401.427 219.474 403.732C219.258 406.037 221.707 409.314 231.101 412.799C240.724 416.227 250.526 419.134 260.463 421.507C263.533 422.129 268.748 423.054 273.222 422.799C275.74 422.621 277.851 420.829 278.437 418.373C278.668 417.455 278.977 416.559 279.362 415.694C280.16 414.099 279.864 412.217 280.327 410.909C280.79 409.601 281.882 400.542 279.362 399.234C276.842 397.927 272.695 405.67 267.049 405.032C261.404 404.394 260.774 397.329 260.774 397.329C260.774 397.329 263.469 394.864 262.026 393.142C260.582 391.419 262.233 390.032 261.093 389.354C259.952 388.676 255.893 391.085 255.893 391.085C255.893 391.085 242.855 396.451 237.743 398.604C236.707 398.995 233.78 398.868 233.78 398.868Z" fill="#191337"/>
<path d="M328.357 380.518C328.357 380.518 338.03 383.429 339.92 386.579C341.81 389.729 348.262 380.12 345.415 374.689C342.568 369.258 346.451 370.144 349.123 372.352C351.794 374.561 353.955 372.959 355.821 374.553C357.687 376.148 361.523 379.657 358.724 386.252C355.925 392.847 349.657 395.702 347.177 400.654C344.697 405.606 345.582 415.694 341.762 419.466C337.943 423.238 330.686 428.062 322.456 424.035C314.226 420.008 321.579 408.987 323.493 406.252C325.407 403.517 325.781 394.131 325.885 390.303C325.989 386.475 325.359 381.659 328.357 380.518Z" fill="#191337"/>
<defs>
<linearGradient id="paint0_linear" x1="0.390762" y1="461.177" x2="500" y2="461.177" gradientUnits="userSpaceOnUse">
<stop stop-color="#F0F2F5"/>
<stop offset="0.99" stop-color="#F5F7F8"/>
</linearGradient>
<linearGradient id="paint1_linear" x1="106.433" y1="355.694" x2="41.1958" y2="231.146" gradientUnits="userSpaceOnUse">
<stop stop-color="#1F1844"/>
<stop offset="0.99" stop-color="#3D3C99"/>
</linearGradient>
<linearGradient id="paint2_linear" x1="79.4761" y1="321.526" x2="35.0151" y2="311.475" gradientUnits="userSpaceOnUse">
<stop stop-color="#3F3D9E"/>
<stop offset="0.99" stop-color="#423E9F"/>
</linearGradient>
<linearGradient id="paint3_linear" x1="83.4558" y1="378.616" x2="156.961" y2="372.006" gradientUnits="userSpaceOnUse">
<stop offset="0.01" stop-color="#BBC0D9"/>
<stop offset="1" stop-color="#D6DBF8"/>
</linearGradient>
<linearGradient id="paint4_linear" x1="80.9081" y1="399.25" x2="137.381" y2="399.285" gradientUnits="userSpaceOnUse">
<stop stop-color="#BAC6D8"/>
<stop offset="0.99" stop-color="#D6DBF8"/>
</linearGradient>
<linearGradient id="paint5_linear" x1="78.5028" y1="312.245" x2="55.7618" y2="290.878" gradientUnits="userSpaceOnUse">
<stop stop-color="#1F1844"/>
<stop offset="0.99" stop-color="#3D3C99"/>
</linearGradient>
<linearGradient id="paint6_linear" x1="76.261" y1="335.637" x2="63.5605" y2="317.413" gradientUnits="userSpaceOnUse">
<stop stop-color="#1F1844"/>
<stop offset="0.99" stop-color="#3D3C99"/>
</linearGradient>
<linearGradient id="paint7_linear" x1="79.8797" y1="333.637" x2="100.02" y2="311.934" gradientUnits="userSpaceOnUse">
<stop stop-color="#1F1844"/>
<stop offset="0.99" stop-color="#3D3C99"/>
</linearGradient>
<linearGradient id="paint8_linear" x1="76.8937" y1="348.594" x2="89.2823" y2="330.471" gradientUnits="userSpaceOnUse">
<stop stop-color="#1F1844"/>
<stop offset="0.99" stop-color="#3D3C99"/>
</linearGradient>
<linearGradient id="paint9_linear" x1="77.0827" y1="354.383" x2="62.3655" y2="337.238" gradientUnits="userSpaceOnUse">
<stop stop-color="#1F1844"/>
<stop offset="0.99" stop-color="#3D3C99"/>
</linearGradient>
<linearGradient id="paint10_linear" x1="76.9221" y1="368.822" x2="91.7116" y2="351.097" gradientUnits="userSpaceOnUse">
<stop stop-color="#1F1844"/>
<stop offset="0.99" stop-color="#3D3C99"/>
</linearGradient>
<linearGradient id="paint11_linear" x1="69.8811" y1="266.891" x2="51.4746" y2="279.425" gradientUnits="userSpaceOnUse">
<stop offset="0.01" stop-color="#3D3C99"/>
<stop offset="1" stop-color="#1F1844"/>
</linearGradient>
<linearGradient id="paint12_linear" x1="56.8387" y1="319.911" x2="63.5919" y2="313.373" gradientUnits="userSpaceOnUse">
<stop stop-color="#E0E4EB"/>
<stop offset="0.99" stop-color="#F3F6FD"/>
</linearGradient>
<linearGradient id="paint13_linear" x1="61.4692" y1="343.883" x2="62.1855" y2="334.677" gradientUnits="userSpaceOnUse">
<stop stop-color="#E0E4EB"/>
<stop offset="0.99" stop-color="#F3F6FD"/>
</linearGradient>
<linearGradient id="paint14_linear" x1="62.9745" y1="309.144" x2="67.717" y2="317.184" gradientUnits="userSpaceOnUse">
<stop stop-color="#E0E4EB"/>
<stop offset="0.99" stop-color="#F3F6FD"/>
</linearGradient>
<linearGradient id="paint15_linear" x1="85.8911" y1="346.115" x2="95.9635" y2="336.314" gradientUnits="userSpaceOnUse">
<stop offset="0.01" stop-color="#BBC0D9"/>
<stop offset="1" stop-color="#D6DBF8"/>
</linearGradient>
<linearGradient id="paint16_linear" x1="67.2957" y1="344.933" x2="68.9857" y2="353.91" gradientUnits="userSpaceOnUse">
<stop stop-color="#E0E4EB"/>
<stop offset="0.99" stop-color="#F3F6FD"/>
</linearGradient>
<linearGradient id="paint17_linear" x1="66.2843" y1="379.988" x2="79.788" y2="379.901" gradientUnits="userSpaceOnUse">
<stop stop-color="#E0E4EB"/>
<stop offset="0.99" stop-color="#F3F6FD"/>
</linearGradient>
<linearGradient id="paint18_linear" x1="73.3727" y1="369.376" x2="73.4131" y2="360.208" gradientUnits="userSpaceOnUse">
<stop stop-color="#E0E4EB"/>
<stop offset="0.99" stop-color="#F3F6FD"/>
</linearGradient>
<linearGradient id="paint19_linear" x1="86.2553" y1="362.155" x2="96.7945" y2="352.074" gradientUnits="userSpaceOnUse">
<stop offset="0.01" stop-color="#BBC0D9"/>
<stop offset="1" stop-color="#D6DBF8"/>
</linearGradient>
<linearGradient id="paint20_linear" x1="79.1826" y1="365.374" x2="81.1482" y2="375.739" gradientUnits="userSpaceOnUse">
<stop stop-color="#E0E4EB"/>
<stop offset="0.99" stop-color="#F3F6FD"/>
</linearGradient>
<linearGradient id="paint21_linear" x1="71.417" y1="266.469" x2="53.0134" y2="278.981" gradientUnits="userSpaceOnUse">
<stop stop-color="#E6EAF1"/>
<stop offset="0.99" stop-color="#F3F6FD"/>
</linearGradient>
<linearGradient id="paint22_linear" x1="55.4073" y1="426.511" x2="108.539" y2="410.388" gradientUnits="userSpaceOnUse">
<stop offset="0.11" stop-color="#8988D5"/>
<stop offset="0.56" stop-color="#9D9CE8"/>
<stop offset="1" stop-color="#A7A5EE"/>
</linearGradient>
<linearGradient id="paint23_linear" x1="64.2026" y1="236.515" x2="315.63" y2="236.515" gradientUnits="userSpaceOnUse">
<stop offset="0.01" stop-color="#BBBFD9"/>
<stop offset="1" stop-color="#D6DBF8"/>
</linearGradient>
<linearGradient id="paint24_linear" x1="325.837" y1="403.3" x2="346.898" y2="403.3" gradientUnits="userSpaceOnUse">
<stop offset="0.01" stop-color="#BBBFD9"/>
<stop offset="1" stop-color="#D6DBF8"/>
</linearGradient>
<linearGradient id="paint25_linear" x1="355.767" y1="385.004" x2="347.178" y2="367.126" gradientUnits="userSpaceOnUse">
<stop stop-color="#753200"/>
<stop offset="1" stop-color="#A04400"/>
</linearGradient>
<linearGradient id="paint26_linear" x1="376.22" y1="132.952" x2="381.826" y2="132.952" gradientUnits="userSpaceOnUse">
<stop stop-color="#753200"/>
<stop offset="1" stop-color="#A04400"/>
</linearGradient>
<linearGradient id="paint27_linear" x1="403.884" y1="399.737" x2="425.303" y2="399.737" gradientUnits="userSpaceOnUse">
<stop offset="0.01" stop-color="#BBBFD9"/>
<stop offset="1" stop-color="#D6DBF8"/>
</linearGradient>
<linearGradient id="paint28_linear" x1="374.809" y1="410.193" x2="394.689" y2="410.193" gradientUnits="userSpaceOnUse">
<stop offset="0.01" stop-color="#BBBFD9"/>
<stop offset="1" stop-color="#D6DBF8"/>
</linearGradient>
<linearGradient id="paint29_linear" x1="424.216" y1="313.955" x2="424.216" y2="182.352" gradientUnits="userSpaceOnUse">
<stop stop-color="#201F4F"/>
<stop offset="0.39" stop-color="#3D3C99"/>
<stop offset="1" stop-color="#403DA0"/>
</linearGradient>
<linearGradient id="paint30_linear" x1="417.065" y1="268.226" x2="429.04" y2="268.371" gradientUnits="userSpaceOnUse">
<stop offset="0.11" stop-color="#343381"/>
<stop offset="0.56" stop-color="#3D3C99"/>
<stop offset="1" stop-color="#403DA0"/>
</linearGradient>
<linearGradient id="paint31_linear" x1="273.711" y1="414.353" x2="286.718" y2="391.519" gradientUnits="userSpaceOnUse">
<stop stop-color="#753200"/>
<stop offset="1" stop-color="#A04400"/>
</linearGradient>
<linearGradient id="paint32_linear" x1="385.207" y1="245.174" x2="500.327" y2="245.174" gradientUnits="userSpaceOnUse">
<stop stop-color="#A7A5EE"/>
<stop offset="0.44" stop-color="#9D9CE8"/>
<stop offset="0.89" stop-color="#8988D5"/>
</linearGradient>
<linearGradient id="paint33_linear" x1="332.706" y1="241.169" x2="319.596" y2="224.928" gradientUnits="userSpaceOnUse">
<stop stop-color="#753200"/>
<stop offset="0.05" stop-color="#793300"/>
<stop offset="0.38" stop-color="#8E3D00"/>
<stop offset="0.7" stop-color="#9C4200"/>
<stop offset="1" stop-color="#A04400"/>
</linearGradient>
<linearGradient id="paint34_linear" x1="209.641" y1="268.366" x2="316.93" y2="268.366" gradientUnits="userSpaceOnUse">
<stop offset="0.01" stop-color="#BBBFD9"/>
<stop offset="0.29" stop-color="#CACDE2"/>
<stop offset="0.84" stop-color="#F2F3F8"/>
<stop offset="1" stop-color="white"/>
</linearGradient>
<linearGradient id="paint35_linear" x1="323.395" y1="198.544" x2="368.38" y2="185.025" gradientUnits="userSpaceOnUse">
<stop stop-color="#753200"/>
<stop offset="1" stop-color="#A04400"/>
</linearGradient>
<linearGradient id="paint36_linear" x1="358.836" y1="134.616" x2="369.903" y2="112.071" gradientUnits="userSpaceOnUse">
<stop stop-color="#A04400" stop-opacity="0.01"/>
<stop offset="0.18" stop-color="#9A4100" stop-opacity="0.14"/>
<stop offset="0.52" stop-color="#8A3B00" stop-opacity="0.52"/>
<stop offset="0.9" stop-color="#753200"/>
</linearGradient>
<linearGradient id="paint37_linear" x1="445.295" y1="417.589" x2="459.673" y2="417.589" gradientUnits="userSpaceOnUse">
<stop offset="0.11" stop-color="#8988D5"/>
<stop offset="0.56" stop-color="#9D9CE8"/>
<stop offset="1" stop-color="#A7A5EE"/>
</linearGradient>
<linearGradient id="paint38_linear" x1="199.418" y1="417.468" x2="212.839" y2="417.468" gradientUnits="userSpaceOnUse">
<stop offset="0.11" stop-color="#8988D5"/>
<stop offset="0.56" stop-color="#9D9CE8"/>
<stop offset="1" stop-color="#A7A5EE"/>
</linearGradient>
<linearGradient id="paint39_linear" x1="332.727" y1="266.429" x2="408.006" y2="266.429" gradientUnits="userSpaceOnUse">
<stop stop-color="#A7A5EE"/>
<stop offset="0.44" stop-color="#9D9CE8"/>
<stop offset="0.89" stop-color="#8988D5"/>
</linearGradient>
<linearGradient id="paint40_linear" x1="453.986" y1="272.775" x2="453.986" y2="259.179" gradientUnits="userSpaceOnUse">
<stop offset="0.11" stop-color="#343381"/>
<stop offset="0.56" stop-color="#3D3C99"/>
<stop offset="1" stop-color="#403DA0"/>
</linearGradient>
<linearGradient id="paint41_linear" x1="314.815" y1="267.74" x2="347.882" y2="244.053" gradientUnits="userSpaceOnUse">
<stop stop-color="white"/>
<stop offset="0.16" stop-color="#F2F3F8"/>
<stop offset="0.71" stop-color="#CACDE2"/>
<stop offset="0.99" stop-color="#BBBFD9"/>
</linearGradient>
<linearGradient id="paint42_linear" x1="368.878" y1="138.576" x2="346.176" y2="158.365" gradientUnits="userSpaceOnUse">
<stop stop-color="#A04400"/>
<stop offset="1" stop-color="#753200"/>
</linearGradient>
<linearGradient id="paint43_linear" x1="378.064" y1="132.932" x2="374.725" y2="134.256" gradientUnits="userSpaceOnUse">
<stop stop-color="#753200"/>
<stop offset="1" stop-color="#A04400"/>
</linearGradient>
<linearGradient id="paint44_linear" x1="313.418" y1="200.249" x2="313.137" y2="238.183" gradientUnits="userSpaceOnUse">
<stop stop-color="#753200"/>
<stop offset="1" stop-color="#A04400"/>
</linearGradient>
<linearGradient id="paint45_linear" x1="353.565" y1="258.871" x2="375.957" y2="258.871" gradientUnits="userSpaceOnUse">
<stop stop-color="white"/>
<stop offset="0.16" stop-color="#F2F3F8"/>
<stop offset="0.71" stop-color="#CACDE2"/>
<stop offset="0.99" stop-color="#BBBFD9"/>
</linearGradient>
</defs>
</svg>
